<svg width="200" height="200" viewBox="0 0 200 200" fill="none" xmlns="http://www.w3.org/2000/svg">
<rect width="200" height="200" fill="#2396ED"/>
<g clip-path="url(#clip0_1323_136)">
<path d="M164.237 88.9634C161.243 86.8661 154.381 86.0796 149.017 87.1282C148.394 81.885 145.524 77.2977 140.534 73.2342L137.665 71.1369L135.668 74.1517C133.174 78.0842 131.926 83.5896 132.3 88.8328C132.425 90.6674 133.048 93.9444 134.92 96.8282C133.174 97.8769 129.556 99.1877 124.815 99.1877H34.6183L34.369 100.236C33.4954 105.479 33.4954 121.864 43.7252 134.447C51.46 144.015 62.9374 148.865 78.0323 148.865C110.717 148.865 134.92 133.005 146.273 104.299C150.764 104.43 160.37 104.299 165.235 94.4682C165.36 94.2061 165.609 93.6818 166.482 91.7161L166.982 90.6674L164.237 88.9634ZM106.725 52.0001H93.0032V65.1077H106.725V52.0001ZM106.725 67.7293H93.0032V80.8369H106.725V67.7288V67.7293ZM90.5075 67.7293H76.7853V80.8369H90.5075V67.7288V67.7293ZM74.2896 67.7293H60.5669V80.8369H74.2896V67.7288V67.7293ZM58.0718 83.4585H44.349V96.5661H58.0713V83.458L58.0718 83.4585ZM74.2896 83.4585H60.5669V96.5661H74.2896V83.458V83.4585ZM90.5075 83.4585H76.7853V96.5661H90.5075V83.458V83.4585ZM106.726 83.4585H93.0027V96.5661H106.726V83.458V83.4585ZM122.944 83.4585H109.221V96.5661H122.944V83.458V83.4585Z" fill="white"/>
</g>
<defs>
<clipPath id="clip0_1323_136">
<rect width="133" height="97" fill="white" transform="translate(34 52)"/>
</clipPath>
</defs>
</svg>
