<svg width="200" height="200" viewBox="0 0 200 200" fill="none" xmlns="http://www.w3.org/2000/svg">
<rect width="200" height="200" fill="#2D3441"/>
<g clip-path="url(#clip0_1327_1709)">
<path d="M154 129.646C152.428 130.241 150.693 130.239 149.122 129.643C147.551 129.046 146.253 127.895 145.473 126.406L129.948 104.937L127.698 101.935L109.684 126.433C108.95 127.859 107.723 128.969 106.23 129.555C104.738 130.142 103.083 130.164 101.575 129.619L124.786 98.4792L103.195 70.3497C104.748 69.7903 106.445 69.7829 108.003 70.3287C109.56 70.8746 110.882 71.9404 111.745 73.3467L127.837 95.0817L144.019 73.4367C144.758 72.0363 145.986 70.9563 147.47 70.4021C148.953 69.8478 150.589 69.858 152.065 70.4307L143.686 81.5502L132.337 96.3237C132.022 96.6049 131.77 96.9495 131.597 97.3349C131.424 97.7203 131.335 98.1379 131.335 98.5602C131.335 98.9826 131.424 99.4002 131.597 99.7856C131.77 100.171 132.022 100.516 132.337 100.797L153.955 129.651L154 129.646ZM46.0091 98.0922L47.8991 88.7547C53.0921 70.2912 74.2601 62.6097 88.8221 74.0397C97.3496 80.7402 99.4781 90.2262 99.0596 100.918H51.0221C50.2436 120.012 64.0226 131.541 81.6401 125.65C84.496 124.622 87.0524 122.902 89.0802 120.643C91.1079 118.384 92.5438 115.658 93.2591 112.708C94.1906 109.711 95.7251 109.198 98.5421 110.062C98.0726 113.718 96.7803 117.22 94.7624 120.304C92.7444 123.388 90.0533 125.975 86.8916 127.869C81.6689 130.725 75.6768 131.858 69.7719 131.104C63.8669 130.35 58.3516 127.748 54.0146 123.67C49.7262 118.843 47.1344 112.746 46.6346 106.309C46.6346 105.252 46.2746 104.262 46.0316 103.312C46.0096 101.574 45.9991 99.8353 46.0001 98.0967L46.0091 98.0922ZM51.0806 96.8052H94.5236C94.2536 82.9632 85.5191 73.1442 73.8686 73.0542C60.8996 72.8742 51.6206 82.4772 51.0491 96.7422L51.0806 96.8052Z" fill="white"/>
</g>
<defs>
<clipPath id="clip0_1327_1709">
<rect width="108" height="108" fill="white" transform="translate(46 46)"/>
</clipPath>
</defs>
</svg>
