<svg width="1200" height="630" viewBox="0 0 1200 630" fill="none" xmlns="http://www.w3.org/2000/svg">
<rect width="1200" height="630" fill="#DFE5EC" fill-opacity="0.5"/>
<path d="M760 175H440C428.94 175 420 183.94 420 195V435C420 446.039 428.94 455 440 455H760C771.06 455 780 446.04 780 435V195C780 183.961 771.06 175 760 175V175ZM664.999 245.003C678.799 245.003 689.999 256.203 689.999 270.003C689.999 283.803 678.799 295.002 664.999 295.002C651.199 295.002 639.999 283.803 639.999 270.003C639.999 256.203 651.199 245.003 664.999 245.003ZM479.998 395.007L546.278 242.627L621.657 364.666L686.277 332.565L719.997 395.006H479.999L479.998 395.007Z" fill="#ACBCCD" fill-opacity="0.5"/>
</svg>
