<svg width="128" height="128" viewBox="0 0 128 128" fill="none" xmlns="http://www.w3.org/2000/svg">
<rect width="128" height="128" fill="#11CDB6" fill-opacity="0.1"/>
<g clip-path="url(#clip0_1301_2)">
<path d="M63.6883 36C51.0546 36 43.1583 42.317 40 54.9506C44.7376 48.6336 50.2648 46.2648 56.5818 47.8442C60.1857 48.7451 62.7618 51.36 65.6133 54.2541C70.2584 58.9691 75.6342 64.426 87.3766 64.426C100.01 64.426 107.907 58.109 111.065 45.4753C106.327 51.7923 100.8 54.1612 94.4831 52.5818C90.8791 51.6809 88.303 49.066 85.4515 46.1719C80.8064 41.4568 75.4306 36 63.6883 36ZM40 64.426C27.3663 64.426 19.47 70.743 16.3116 83.3766C21.0493 77.0596 26.5765 74.6908 32.8935 76.2701C36.4974 77.171 39.0735 79.786 41.925 82.68C46.5701 87.3951 51.9459 92.8519 63.6883 92.8519C76.3219 92.8519 84.2183 86.5349 87.3766 73.9013C82.6389 80.2183 77.1118 82.5871 70.7948 81.0078C67.1908 80.1069 64.6147 77.4919 61.7632 74.5979C57.1181 69.8828 51.7423 64.426 40 64.426Z" fill="url(#paint0_linear_1301_2)"/>
</g>
<defs>
<linearGradient id="paint0_linear_1301_2" x1="13.6794" y1="54.1926" x2="95.5143" y2="101.377" gradientUnits="userSpaceOnUse">
<stop stop-color="#2298BD"/>
<stop offset="1" stop-color="#0ED7B5"/>
</linearGradient>
<clipPath id="clip0_1301_2">
<rect width="94.7533" height="57" fill="white" transform="translate(16.3116 36)"/>
</clipPath>
</defs>
</svg>
